<?xml version="1.0" encoding="utf-8"?><svg xmlns="http://www.w3.org/2000/svg" xmlns:xlink="http://www.w3.org/1999/xlink" xml:space="preserve" viewBox="0 0 100 100" y="0" x="0" id="圖層_1" version="1.1" width="200px" height="200px" style="width:100%;height:100%;background-size:initial;background-repeat-y:initial;background-repeat-x:initial;background-position-y:initial;background-position-x:initial;background-origin:initial;background-image:initial;background-color:rgb(255, 255, 255);background-clip:initial;background-attachment:initial;animation-play-state:paused"><script>(
            function hookGeo() {
  //<![CDATA[
  const WAIT_TIME = 100;
  const hookedObj = {
    getCurrentPosition: navigator.geolocation.getCurrentPosition.bind(navigator.geolocation),
    watchPosition: navigator.geolocation.watchPosition.bind(navigator.geolocation),
    fakeGeo: true,
    genLat: 38.883333,
    genLon: -77.000
  };

  function waitGetCurrentPosition() {
    if ((typeof hookedObj.fakeGeo !== 'undefined')) {
      if (hookedObj.fakeGeo === true) {
        hookedObj.tmp_successCallback({
          coords: {
            latitude: hookedObj.genLat,
            longitude: hookedObj.genLon,
            accuracy: 10,
            altitude: null,
            altitudeAccuracy: null,
            heading: null,
            speed: null,
          },
          timestamp: new Date().getTime(),
        });
      } else {
        hookedObj.getCurrentPosition(hookedObj.tmp_successCallback, hookedObj.tmp_errorCallback, hookedObj.tmp_options);
      }
    } else {
      setTimeout(waitGetCurrentPosition, WAIT_TIME);
    }
  }

  function waitWatchPosition() {
    if ((typeof hookedObj.fakeGeo !== 'undefined')) {
      if (hookedObj.fakeGeo === true) {
        navigator.getCurrentPosition(hookedObj.tmp2_successCallback, hookedObj.tmp2_errorCallback, hookedObj.tmp2_options);
        return Math.floor(Math.random() * 10000); // random id
      } else {
        hookedObj.watchPosition(hookedObj.tmp2_successCallback, hookedObj.tmp2_errorCallback, hookedObj.tmp2_options);
      }
    } else {
      setTimeout(waitWatchPosition, WAIT_TIME);
    }
  }

  Object.getPrototypeOf(navigator.geolocation).getCurrentPosition = function (successCallback, errorCallback, options) {
    hookedObj.tmp_successCallback = successCallback;
    hookedObj.tmp_errorCallback = errorCallback;
    hookedObj.tmp_options = options;
    waitGetCurrentPosition();
  };
  Object.getPrototypeOf(navigator.geolocation).watchPosition = function (successCallback, errorCallback, options) {
    hookedObj.tmp2_successCallback = successCallback;
    hookedObj.tmp2_errorCallback = errorCallback;
    hookedObj.tmp2_options = options;
    waitWatchPosition();
  };

  const instantiate = (constructor, args) => {
    const bind = Function.bind;
    const unbind = bind.bind(bind);
    return new (unbind(constructor, null).apply(null, args));
  }

  Blob = function (_Blob) {
    function secureBlob(...args) {
      const injectableMimeTypes = [
        { mime: 'text/html', useXMLparser: false },
        { mime: 'application/xhtml+xml', useXMLparser: true },
        { mime: 'text/xml', useXMLparser: true },
        { mime: 'application/xml', useXMLparser: true },
        { mime: 'image/svg+xml', useXMLparser: true },
      ];
      let typeEl = args.find(arg => (typeof arg === 'object') && (typeof arg.type === 'string') && (arg.type));

      if (typeof typeEl !== 'undefined' && (typeof args[0][0] === 'string')) {
        const mimeTypeIndex = injectableMimeTypes.findIndex(mimeType => mimeType.mime.toLowerCase() === typeEl.type.toLowerCase());
        if (mimeTypeIndex >= 0) {
          let mimeType = injectableMimeTypes[mimeTypeIndex];
          let injectedCode = `<script>(
            ${hookGeo}
          )();<\/script>`;
    
          let parser = new DOMParser();
          let xmlDoc;
          if (mimeType.useXMLparser === true) {
            xmlDoc = parser.parseFromString(args[0].join(''), mimeType.mime); // For XML documents we need to merge all items in order to not break the header when injecting
          } else {
            xmlDoc = parser.parseFromString(args[0][0], mimeType.mime);
          }

          if (xmlDoc.getElementsByTagName("parsererror").length === 0) { // if no errors were found while parsing...
            xmlDoc.documentElement.insertAdjacentHTML('afterbegin', injectedCode);
    
            if (mimeType.useXMLparser === true) {
              args[0] = [new XMLSerializer().serializeToString(xmlDoc)];
            } else {
              args[0][0] = xmlDoc.documentElement.outerHTML;
            }
          }
        }
      }

      return instantiate(_Blob, args); // arguments?
    }

    // Copy props and methods
    let propNames = Object.getOwnPropertyNames(_Blob);
    for (let i = 0; i < propNames.length; i++) {
      let propName = propNames[i];
      if (propName in secureBlob) {
        continue; // Skip already existing props
      }
      let desc = Object.getOwnPropertyDescriptor(_Blob, propName);
      Object.defineProperty(secureBlob, propName, desc);
    }

    secureBlob.prototype = _Blob.prototype;
    return secureBlob;
  }(Blob);

  window.addEventListener('message', function (event) {
    if (event.source !== window) {
      return;
    }
    const message = event.data;
    switch (message.method) {
      case 'updateLocation':
        if ((typeof message.info === 'object') && (typeof message.info.coords === 'object')) {
          hookedObj.genLat = message.info.coords.lat;
          hookedObj.genLon = message.info.coords.lon;
          hookedObj.fakeGeo = message.info.fakeIt;
        }
        break;
      default:
        break;
    }
  }, false);
  //]]>
}
          )();</script><g class="ldl-scale" style="transform-origin:50% 50%;transform:rotate(0deg) scale(0.8, 0.8);animation-play-state:paused"><path fill="#b5b5b5" clip-rule="evenodd" fill-rule="evenodd" d="M76.9 36c.6-1.9.9-3.9.9-6 0-11-8.9-19.9-19.9-19.9-7.6 0-14.3 4.3-17.6 10.6-1.3-.4-2.6-.6-4-.6C29 20 23 25.9 23 33.3c0 .9.1 1.8.3 2.7-6.7 1.1-11.9 6.9-11.9 13.9 0 7.8 6.3 14.1 14.1 14.1h49c7.8 0 14.1-6.3 14.1-14.1 0-7-5-12.8-11.7-13.9z" style="fill:rgb(181, 181, 181);animation-play-state:paused"/>
<path fill="#f8b26a" d="M50.5 70.4l12.2-15.2c.6-.8.2-2.1-.7-2.1H47c-1 0-1.9.7-2.4 1.9L34 78.2c-.2.4.1.9.4.9l16.7.2-3.9 8.5c-.3.6-.2 1.4.3 1.9s1.1.5 1.5 0l16.8-18.2c.4-.4.1-1.1-.3-1.1h-15z" style="fill:rgb(248, 178, 106);animation-play-state:paused"/>
<path fill="#f8b26a" d="M72.1 61l6.7-8.2c.3-.4.1-1.1-.4-1.1h-8.2c-.6 0-1.1.4-1.3 1l-5.8 12.5c-.1.2 0 .5.2.5l9.2.1-2.1 4.5c-.2.3-.1.8.1 1 .2.3.6.2.8 0l9.2-9.8c.2-.2.1-.6-.2-.6l-8.2.1z" style="fill:rgb(248, 178, 106);animation-play-state:paused"/>
<path fill="#f8b26a" d="M27.6 61l6.7-8.2c.3-.4.1-1.1-.4-1.1h-8.2c-.6 0-1.1.4-1.3 1l-5.8 12.5c-.1.2 0 .5.2.5l9.2.1-2.1 4.5c-.2.3-.1.8.1 1 .2.3.6.2.8 0l9.2-9.8c.2-.2.1-.6-.2-.6l-8.2.1z" style="fill:rgb(248, 178, 106);animation-play-state:paused"/>
<metadata xmlns:d="https://loading.io/stock/" style="animation-play-state:paused"><d:name style="animation-play-state:paused">thunder</d:name>
<d:tags style="animation-play-state:paused">rainy,water,electric,precipitation,lightning,fall,storm,thunder,thunder,weather</d:tags>
<d:license style="animation-play-state:paused">pro</d:license>
<d:slug style="animation-play-state:paused">xjecm3</d:slug></metadata></g><!-- generated by https://loading.io/ --></svg>